# xmcd
#
# Track frame offsets: 
#        150
#        24925
#        43175
#        62525
#        79700
#        99150
#        114500
#        130275
#        150175
#        169250
#        191200
#        208975
#        230675
#        248575
#        265275
#        282925
#        300575
#        315800
#
# Disc length: 4522 seconds
#
# Revision: 14
# Processed by: cddbd v1.5.2PL0 Copyright (c) Steve Scherf et al.
# Submitted via: ExactAudioCopyFreeDBPlugin 1.0
#
DISCID=e911a812
DTITLE=Various Artist - Kuschel Rock 14 CD1
DYEAR=2000
DGENRE=Love Songs
TTITLE0=Celine Dion and R. Kelly
TTITLE1=A-HA
TTITLE2=Phil Collins
TTITLE3=Reamonn
TTITLE4=Robbie Williams
TTITLE5=Mariah Carey
TTITLE6=Bryan Adams
TTITLE7=The Corrs
TTITLE8=Ronan Keating
TTITLE9=Eurythmics
TTITLE10=TLC
TTITLE11=Dire Straits
TTITLE12=Christina Aguilera
TTITLE13=Extreme
TTITLE14=Jessica Simpson
TTITLE15=Backstreet Boys
TTITLE16=Brian McKnight
TTITLE17=Eric Clapton
EXTD=YEAR: 2000
EXTT0=
EXTT1=
EXTT2=
EXTT3=
EXTT4=
EXTT5=
EXTT6=
EXTT7=
EXTT8=
EXTT9=
EXTT10=
EXTT11=
EXTT12=
EXTT13=
EXTT14=
EXTT15=
EXTT16=
EXTT17=
PLAYORDER=
